<svg xmlns="http://www.w3.org/2000/svg" viewBox="0 0 214.99 177.32"><defs><style>.cls-1{fill:#ff0;}.cls-2{fill:#ffb400;}.cls-3{fill:#fff;}.cls-4,.cls-6{font-size:66.75px;}.cls-4,.cls-5{fill:#2e3192;}.cls-4,.cls-5,.cls-6,.cls-7{font-family:FredokaOne-Regular, Fredoka One;}.cls-5,.cls-7{font-size:48.04px;}.cls-6{fill:#29abe2;}.cls-7{fill:#ed1e79;}</style></defs><title>Asset 3</title><g id="Layer_2" data-name="Layer 2"><g id="Layer_1-2" data-name="Layer 1"><path class="cls-1" d="M127.32,115.3,133,97a2.7,2.7,0,0,0-2.68-3.49l-19.18.77a2.69,2.69,0,0,1-1.36-5.07l16.49-8.67a2.69,2.69,0,0,0,.3-4.57L86.36,47.38A2.69,2.69,0,0,1,89,42.74l44.85,20.57a2.68,2.68,0,0,0,3.8-2.55L137,42.15A2.69,2.69,0,0,1,142,40.79l8.94,17a2.68,2.68,0,0,0,4.35.57l13-14.1a2.69,2.69,0,0,1,4.54,2.62l-5.7,18.34a2.69,2.69,0,0,0,2.68,3.48L189,67.94A2.69,2.69,0,0,1,190.39,73L173.9,81.67a2.7,2.7,0,0,0-.31,4.58l40.24,28.55a2.68,2.68,0,0,1-2.67,4.63L166.31,98.86a2.69,2.69,0,0,0-3.81,2.55l.74,18.61a2.68,2.68,0,0,1-5.06,1.36l-8.94-17a2.68,2.68,0,0,0-4.35-.58l-13,14.11A2.69,2.69,0,0,1,127.32,115.3Z"/><path class="cls-2" d="M145.85,87.32l.12-4.91a.48.48,0,0,0-.16-.36l-10.75-9a.45.45,0,0,1,.44-.77l13.13,4.84a.45.45,0,0,0,.39,0l4.19-2.55a.45.45,0,0,1,.69.39l-.12,4.91a.46.46,0,0,0,.17.36l10.75,9a.45.45,0,0,1-.45.77l-13.12-4.84a.48.48,0,0,0-.39,0l-4.2,2.56A.46.46,0,0,1,145.85,87.32Z"/><path class="cls-1" d="M174.9,37.94a1.55,1.55,0,0,1-.8-.21,1.6,1.6,0,0,1-.58-2.18l4.79-8.28a1.6,1.6,0,0,1,2.76,1.6l-4.79,8.28A1.58,1.58,0,0,1,174.9,37.94Zm9.57-16.56a1.61,1.61,0,0,1-.79-.21,1.59,1.59,0,0,1-.59-2.18l4.79-8.28a1.59,1.59,0,1,1,2.76,1.59l-4.79,8.28A1.59,1.59,0,0,1,184.47,21.38Zm9.58-16.56a1.56,1.56,0,0,1-.8-.22,1.6,1.6,0,0,1-.58-2.18L193.61.8a1.59,1.59,0,1,1,2.76,1.59L195.43,4A1.6,1.6,0,0,1,194.05,4.82Z"/><path class="cls-1" d="M104.11,160.7a1.61,1.61,0,0,1-.79-.21,1.59,1.59,0,0,1-.59-2.18l1-1.63a1.6,1.6,0,0,1,2.76,1.6l-.94,1.63A1.61,1.61,0,0,1,104.11,160.7Zm5.73-9.91a1.68,1.68,0,0,1-.8-.21,1.6,1.6,0,0,1-.58-2.18l4.79-8.28a1.59,1.59,0,0,1,2.76,1.59L111.22,150A1.58,1.58,0,0,1,109.84,150.79Zm9.57-16.56a1.61,1.61,0,0,1-.79-.21,1.59,1.59,0,0,1-.58-2.18l4.78-8.28a1.59,1.59,0,1,1,2.76,1.59l-4.78,8.28A1.61,1.61,0,0,1,119.41,134.23Z"/><path class="cls-1" d="M161.41,7.4l-1.29,4.75a.8.8,0,0,0,.21.79l3.49,3.46a.81.81,0,0,1-.79,1.36l-4.74-1.3a.83.83,0,0,0-.79.22L154,20.16a.81.81,0,0,1-1.36-.78L154,14.64a.8.8,0,0,0-.21-.79l-3.49-3.46A.81.81,0,0,1,151.06,9l4.74,1.29a.8.8,0,0,0,.79-.21l3.46-3.49A.81.81,0,0,1,161.41,7.4Z"/><path class="cls-1" d="M23,123.79l-1.3,4.74a.83.83,0,0,0,.22.79l3.48,3.46a.81.81,0,0,1-.78,1.36l-4.74-1.29a.8.8,0,0,0-.79.21l-3.46,3.49a.81.81,0,0,1-1.36-.79L15.59,131a.8.8,0,0,0-.21-.79l-3.49-3.46a.81.81,0,0,1,.78-1.36l4.75,1.29a.8.8,0,0,0,.79-.21L21.67,123A.81.81,0,0,1,23,123.79Z"/><path class="cls-1" d="M210.8,82.09l-1,3.67a.62.62,0,0,0,.17.61l2.7,2.69a.63.63,0,0,1-.61,1l-3.67-1a.62.62,0,0,0-.61.16L205.1,92a.63.63,0,0,1-1.06-.6l1-3.68a.63.63,0,0,0-.16-.61l-2.7-2.68a.63.63,0,0,1,.61-1.05l3.67,1a.61.61,0,0,0,.61-.17l2.68-2.7A.63.63,0,0,1,210.8,82.09Z"/><path class="cls-1" d="M38.62,26.29l-1,3.67a.65.65,0,0,0,.17.62l2.7,2.68a.63.63,0,0,1-.61,1.05l-3.67-1a.62.62,0,0,0-.61.16l-2.68,2.7a.63.63,0,0,1-1.06-.6l1-3.68a.63.63,0,0,0-.16-.61L30,28.6a.62.62,0,0,1,.6-1.05l3.68,1a.61.61,0,0,0,.61-.17l2.68-2.7A.63.63,0,0,1,38.62,26.29Z"/><path class="cls-1" d="M183.56,169.57l-.77,2.82a.5.5,0,0,0,.13.48l2.08,2.06a.48.48,0,0,1-.47.81L181.7,175a.48.48,0,0,0-.47.13l-2.06,2.08a.48.48,0,0,1-.81-.47l.77-2.83a.5.5,0,0,0-.13-.47l-2.08-2.06a.49.49,0,0,1,.47-.82l2.83.77a.49.49,0,0,0,.47-.12l2.06-2.08A.48.48,0,0,1,183.56,169.57Z"/><path class="cls-3" d="M54.69,49.58A1.59,1.59,0,0,1,53.1,48,37.86,37.86,0,0,1,56,33.4a1.6,1.6,0,0,1,2.95,1.22A34.7,34.7,0,0,0,56.29,48,1.6,1.6,0,0,1,54.69,49.58ZM125,35.65a1.62,1.62,0,0,1-1.48-1,34.61,34.61,0,0,0-7.57-11.34,1.59,1.59,0,0,1,2.26-2.25,38,38,0,0,1,8.26,12.37,1.59,1.59,0,0,1-.86,2.08A1.49,1.49,0,0,1,125,35.65ZM65.39,23.76a1.59,1.59,0,0,1-1.12-.47,1.58,1.58,0,0,1,0-2.25,37.86,37.86,0,0,1,12.36-8.27,1.59,1.59,0,1,1,1.22,2.94,34.75,34.75,0,0,0-11.33,7.58A1.6,1.6,0,0,1,65.39,23.76Zm39.81-7.91a1.47,1.47,0,0,1-.61-.12,34.89,34.89,0,0,0-13.37-2.66,1.6,1.6,0,0,1,0-3.19h0a37.83,37.83,0,0,1,14.58,2.91,1.59,1.59,0,0,1-.61,3.06Z"/><text class="cls-4" transform="translate(4.15 109.58)">Big</text><text class="cls-5" transform="translate(41.05 154.29)">Banger</text><text class="cls-6" transform="translate(0 105.44)">Big</text><text class="cls-7" transform="translate(36.91 150.14)">Banger</text></g></g></svg>