<svg xmlns="http://www.w3.org/2000/svg" xmlns:xlink="http://www.w3.org/1999/xlink" viewBox="0 0 89.88 52.98"><defs><style>.cls-1{fill:url(#linear-gradient);}.cls-2{fill:#fff;}</style><linearGradient id="linear-gradient" y1="26.49" x2="89.88" y2="26.49" gradientUnits="userSpaceOnUse"><stop offset="0" stop-color="#ed1c24"/><stop offset="1" stop-color="#f15a24"/></linearGradient></defs><title>Asset 25</title><g id="Layer_2" data-name="Layer 2"><g id="Layer_1-2" data-name="Layer 1"><polygon class="cls-1" points="78.91 7.49 10.97 7.49 0 26.49 10.97 45.49 78.91 45.49 89.88 26.49 78.91 7.49"/><path class="cls-2" d="M29.58,11.26A15.23,15.23,0,1,0,44.81,26.49,15.23,15.23,0,0,0,29.58,11.26Zm-7,2.86a5.83,5.83,0,0,1,1-.48.66.66,0,0,1,.3-.72h0a8.79,8.79,0,0,1,2.05-.79l.22-.08h.14l.11,0a.74.74,0,0,1,.84.31c.26-.14.52-.28.8-.4a1.06,1.06,0,0,1,1.21.15,3.71,3.71,0,0,0,1.31.45.89.89,0,0,1-.23,1.73,3.76,3.76,0,0,1-1.87-.37c-.94.37-1.85.82-2.78,1.23l-.1,0A4.53,4.53,0,0,1,23,15.7.86.86,0,0,1,22.56,14.12ZM17.39,28.34a1.74,1.74,0,0,1-.37-.92,2.52,2.52,0,0,1-1.59-1.84c-.32-1.64.86-3.22,2-4.53a1.62,1.62,0,0,1,.24-.75,1,1,0,0,1,.08-.33,1.58,1.58,0,0,1,.24-.39c0-.23.07-.46.12-.7a.88.88,0,0,1,.37-.55,3.14,3.14,0,0,1,1.43-1.82c.81-.43,1.78.69,1,1.31-.47.38-.42.63-.09,1.11a.66.66,0,0,1-.11.88,3.75,3.75,0,0,1,.13.58,1.58,1.58,0,0,1,1.88.92c.12.27.26.56.41.86l.07,0a1.72,1.72,0,0,1,1.66,1.29,2.52,2.52,0,0,1-.24,2.18,5,5,0,0,1,.16,2.48,2.51,2.51,0,0,1-2.58,2.11,1.74,1.74,0,0,1-1,.25A4.82,4.82,0,0,1,17.39,28.34ZM28,38.64a2,2,0,0,1-2.26,1A5.44,5.44,0,0,1,23.45,38a2.7,2.7,0,0,1-1.91-.77.66.66,0,0,1-.06-1c-.09,0-.16-.1-.25-.14a1.88,1.88,0,0,1-.88-2.31,1.88,1.88,0,0,1-.18-.12,1.31,1.31,0,0,1,.34-2.24.39.39,0,0,1,.4-.38,6.44,6.44,0,0,1,1.63.2.51.51,0,0,1,.26.2A5.9,5.9,0,0,1,24,31a1.89,1.89,0,0,1,.52-.06c.77-.61,1.51-1.4,2-1.66,1.47-.81,3.9-.42,3.89,1.66,0,1.36-1.21,2.54-2,3.56l-.11.15c2.06.15,2.83,3.26.52,3.79ZM32,40.85a5,5,0,0,1-.86.14A.7.7,0,0,1,31,41c-.25,0-.5.08-.75.09-1,.05-1-1.55,0-1.59.4,0,.78-.13,1.18-.15a.72.72,0,0,1,.77.77A.45.45,0,0,1,32,40.85Zm.32-16.75c.16-.05.5-.24.78-.36v0a2.21,2.21,0,0,1,.15-1.33,4.43,4.43,0,0,1-1-.09,1,1,0,0,1-.79-.65c-2,.12-4.28-.36-5.51-1.64a1.18,1.18,0,0,1,.52-2c1.61-.27,3.23-.54,4.83-.91a.86.86,0,0,1,.45,0,1.22,1.22,0,0,1-.34-1.06,3,3,0,0,1,1-1.62,3.32,3.32,0,0,1,.46-.38s.31-.2.13-.07c.25-.18.5-.32.74-.49a.71.71,0,0,1,.51-.12,2.69,2.69,0,0,1,1.54-.06,1.87,1.87,0,0,1,1,.74,3.13,3.13,0,0,1,1,.26,1,1,0,0,1,.15,1.75c0,.24,0,.48,0,.71a.85.85,0,0,1-.3.74,1.25,1.25,0,0,1,1,.1c1.47.76,1.44,1.89,2.12,3.17A1.51,1.51,0,0,1,40,23,12.71,12.71,0,0,1,40,25.2a4.23,4.23,0,0,1-1.06,2.28,1,1,0,0,1-1.34.1,13.56,13.56,0,0,1-4.61,1C30.28,28.86,30,24.84,32.34,24.1ZM40,36.18c-.9,1.72-2.39,2.94-4.45,2.47a1.9,1.9,0,0,1-.83-3.14c.69-.87,1.33-1.77,2-2.67a1.7,1.7,0,0,1,.41-1.39,1.29,1.29,0,0,1,.43-1.6c1-.77,2.16-1.47,3.22-2.24.56-.4,1.13.23,1,.78l.11.09C44.31,31,42.57,34.25,40,36.18Z"/><path class="cls-2" d="M61.71,11.26A15.23,15.23,0,1,0,76.94,26.49,15.22,15.22,0,0,0,61.71,11.26Zm-6,27.39c-2.06.47-3.54-.75-4.45-2.47C48.72,34.25,47,31,49.4,28.48l.11-.09c-.1-.55.47-1.18,1-.78,1.06.77,2.17,1.47,3.22,2.24a1.29,1.29,0,0,1,.43,1.6,1.7,1.7,0,0,1,.41,1.39c.63.9,1.27,1.8,2,2.67A1.9,1.9,0,0,1,55.73,38.65ZM61,41.05c-.25,0-.5-.06-.75-.09a.7.7,0,0,1-.14,0,5,5,0,0,1-.86-.14.45.45,0,0,1-.2-.77.72.72,0,0,1,.77-.77c.4,0,.79.13,1.18.15C62.05,39.5,62.05,41.1,61,41.05Zm10.1-7.36a1.88,1.88,0,0,1-.18.12,1.88,1.88,0,0,1-.88,2.31c-.09,0-.16.09-.25.14a.66.66,0,0,1-.06,1,2.7,2.7,0,0,1-1.91.77,5.44,5.44,0,0,1-2.24,1.67,2,2,0,0,1-2.26-1l-.84-.16C60.19,38,61,34.84,63,34.69l-.11-.15c-.76-1-2-2.2-2-3.56,0-2.08,2.42-2.47,3.89-1.66.48.26,1.22,1.05,2,1.66a1.89,1.89,0,0,1,.52.06,5.9,5.9,0,0,1,1.15.43.5.5,0,0,1,.27-.2,6.31,6.31,0,0,1,1.62-.2.39.39,0,0,1,.4.38A1.31,1.31,0,0,1,71.12,33.69Zm4.36-6.56a3.55,3.55,0,0,1,.22.65.9.9,0,0,1,0,.4l0,.11a1.42,1.42,0,0,1,.38,1.32,1.17,1.17,0,0,1-1,.85,1.19,1.19,0,0,1-1.18-.57,3.54,3.54,0,0,1-.51-1,4.68,4.68,0,0,1-3.35,1.6,1.74,1.74,0,0,1-1-.25,2.51,2.51,0,0,1-2.58-2.11,5,5,0,0,1,.16-2.48,2.18,2.18,0,0,1-.22-.43A2.06,2.06,0,0,1,65.26,24a2.93,2.93,0,0,1-2.07-1.78,4.89,4.89,0,0,1-.21-.93,9.72,9.72,0,0,1-3.22.35,1,1,0,0,1-.79.65l-.79,1.42s0,0,0,0c.28.12.62.31.78.36,2.31.74,2.06,4.76-.6,4.46a13.56,13.56,0,0,1-4.61-1,1,1,0,0,1-1.34-.1,4.23,4.23,0,0,1-1.06-2.28A12.71,12.71,0,0,1,51.27,23a1.51,1.51,0,0,1-.88-2.18c.68-1.28.65-2.41,2.12-3.17a1.25,1.25,0,0,1,1-.1.85.85,0,0,1-.3-.74c0-.23,0-.47,0-.71a1,1,0,0,1,.15-1.75,3.13,3.13,0,0,1,1-.26,1.91,1.91,0,0,1,1-.74,2.69,2.69,0,0,1,1.54.06.71.71,0,0,1,.51.12c.24.17.5.31.74.49-.18-.13.12.06.13.07a3.32,3.32,0,0,1,.46.38,3,3,0,0,1,1,1.62,1.22,1.22,0,0,1-.34,1.06.86.86,0,0,1,.45,0c1.09.25,2.18.45,3.28.64a8,8,0,0,1,1.44-3.12c-.58-.27-1.16-.53-1.75-.76a3.76,3.76,0,0,1-1.87.37.89.89,0,0,1-.23-1.73,3.71,3.71,0,0,0,1.31-.45,1.06,1.06,0,0,1,1.21-.15c.28.12.54.26.8.4A.74.74,0,0,1,65,12l.11,0h.14l.22.08a8.79,8.79,0,0,1,2,.79h0a.65.65,0,0,1,.31.65,4.91,4.91,0,0,1,.92.42,3.55,3.55,0,0,1,1.56,2.86.9.9,0,0,1,1.15-.34,3.11,3.11,0,0,1,1.43,1.82.88.88,0,0,1,.37.55c0,.24.09.47.12.7a1.58,1.58,0,0,1,.24.39,1,1,0,0,1,.08.33,1.62,1.62,0,0,1,.24.75,13.44,13.44,0,0,1,1.29,1.71,1,1,0,0,1,.92.76,1.19,1.19,0,0,1,.13.53h0a7.28,7.28,0,0,1-.07.93,1.45,1.45,0,0,1-.08.36.76.76,0,0,0,0,.15.75.75,0,0,1-.44.68,2.7,2.7,0,0,1-.38.57A1.22,1.22,0,0,1,75.48,27.13Z"/><path class="cls-2" d="M28.32,6.33l-.84-.84A1.19,1.19,0,0,1,29.16,3.8l.84.84a1.19,1.19,0,0,1-1.68,1.69Z"/><path class="cls-2" d="M34.06,45.46l-4.2,4.21A1.2,1.2,0,1,1,28.17,48l4.21-4.2a1.19,1.19,0,0,1,1.68,1.68Z"/><path class="cls-2" d="M57.23,7l.84-.84a1.19,1.19,0,0,1,1.68,1.69l-.84.84A1.19,1.19,0,1,1,57.23,7Z"/><path class="cls-2" d="M66.2,52.54,58.62,45a1.2,1.2,0,0,1,1.69-1.69l7.57,7.58a1.18,1.18,0,0,1,0,1.68A1.2,1.2,0,0,1,66.2,52.54Z"/><path class="cls-2" d="M47.3,53c-3.69,0-6.5-4.27-8.13-12.33a2.38,2.38,0,0,1,4.67-.94c1.26,6.25,3,8.21,3.46,8.49C48.68,47.54,52,40.42,52,26.49s-3.27-21-4.65-21.71c-.51.28-2.25,2.3-3.51,8.76a2.38,2.38,0,0,1-4.68-.91C40.73,4.37,43.56,0,47.3,0c7.42,0,9.41,16.65,9.41,26.49S54.72,53,47.3,53Z"/></g></g></svg>