<svg xmlns="http://www.w3.org/2000/svg" xmlns:xlink="http://www.w3.org/1999/xlink" viewBox="0 0 86.15 64.31"><defs><style>.cls-1{opacity:0.83;fill:url(#linear-gradient);}.cls-2{fill:#fff;}</style><linearGradient id="linear-gradient" x1="5.71" y1="32.15" x2="79.97" y2="32.15" gradientUnits="userSpaceOnUse"><stop offset="0" stop-color="aqua"/><stop offset="1" stop-color="#00bdff"/></linearGradient></defs><title>Asset 6</title><g id="Layer_2" data-name="Layer 2"><g id="Layer_1-2" data-name="Layer 1"><polygon class="cls-1" points="61.4 0 24.27 0 5.71 32.15 24.27 64.31 61.4 64.31 79.97 32.15 61.4 0"/><path id="path100" class="cls-2" d="M66.09,32.29c-1.53,2.84-4.64,4.64-7.29,6.3a82.15,82.15,0,0,1-9.13,4.73A149.34,149.34,0,0,1,31.46,50c-.28.09-.11.49.16.41a119.4,119.4,0,0,0,19.89-7.07,73,73,0,0,0,8.58-4.93c2.44-1.61,5.07-3.29,6.49-5.94.16-.3-.33-.5-.49-.21"/><path id="path102" class="cls-2" d="M18.53,32.85a76.5,76.5,0,0,1,8.21-4.8c.22-.11.09-.46-.14-.36a47.46,47.46,0,0,0-8.4,4.72c-.28.2,0,.64.33.44"/><path class="cls-2" d="M85.31,23.25c-1.3-1.54-3.5-2-5.4-2.26a37.29,37.29,0,0,0-8.18,0,119.75,119.75,0,0,0-26.5,5.44A9.91,9.91,0,0,0,32,31.69c-1.82.83-3.63,1.69-5.4,2.61a33.4,33.4,0,0,0-6.19,4c-1.24,1.05-2.84,2.6-1.84,4.35a3.71,3.71,0,0,0,2.83,1.61A92.16,92.16,0,0,1,10.5,45.67c-2.47.16-6.24.62-8.39-.92C-1,42.51,3.29,39.22,5,37.78a70.33,70.33,0,0,1,13-8.36c5.36-2.78,10.88-5.28,16.43-7.66a.22.22,0,0,0-.16-.4,154.69,154.69,0,0,0-17.07,7.58A65.93,65.93,0,0,0,3,38.33c-1.37,1.24-3.2,2.83-3,4.89s2.28,3,4.1,3.35c5.91,1,12.42.27,18.27-.74,3.37-.57,6.7-1.37,10-2.25a65.76,65.76,0,0,0,9.27-2.8c2.18-.73,4.34-1.54,6.44-2.44a43.12,43.12,0,0,0,7.71-4.23c1.87-1.32,4.67-3.3,5.37-5.62,1.44-4.76-10-.71-11.39-.14a.24.24,0,0,0,.18.45h0a28,28,0,0,1,6.82-1.63c.92-.1,3.65-.68,3.1,1.43-.25,1-1.88,2-2.62,2.6a39.29,39.29,0,0,1-6.26,4A12,12,0,0,0,50.46,32a9.88,9.88,0,0,0-1.74-3A9.75,9.75,0,0,0,47,27.5a109.15,109.15,0,0,1,18.09-4c4.94-.67,10.13-1.45,15.09-.63,2.08.34,5.25,1.43,3.45,4a30.14,30.14,0,0,1-3.87,4.51l-2.26,1.9a19.23,19.23,0,0,1-5.42,3.61c-.3.11-.18.64.15.56a14.55,14.55,0,0,0,3.08-1.12,27.58,27.58,0,0,0,2.87-1.8c.87-.61,1.71-1.25,2.54-1.91a17.31,17.31,0,0,0,4.42-4.57C86.25,26.52,86.63,24.81,85.31,23.25ZM30.86,42.09c-3.88.72-11.89,1.83-11.12-1,.23-.85,1.47-1.65,2.11-2.15a31.27,31.27,0,0,1,2.62-1.81,54.15,54.15,0,0,1,6-3.1l.9-.41a9.61,9.61,0,0,0-.19,2A9.88,9.88,0,0,0,31.81,39a9.77,9.77,0,0,0,1.36,2.46Z"/></g></g></svg>