<svg xmlns="http://www.w3.org/2000/svg" viewBox="0 0 68 25.59"><defs><style>.cls-1{fill:#fff;}</style></defs><title>Asset 1</title><g id="Layer_2" data-name="Layer 2"><g id="Layer_1-2" data-name="Layer 1"><path class="cls-1" d="M55.21,0A12.8,12.8,0,1,0,68,12.79,12.8,12.8,0,0,0,55.21,0Zm-5.9,2.41A4.4,4.4,0,0,1,50.12,2a.55.55,0,0,1,.26-.6h0A7.49,7.49,0,0,1,52.09.72l.19-.07a.4.4,0,0,1,.11,0l.1,0a.62.62,0,0,1,.7.26,7.18,7.18,0,0,1,.68-.34.9.9,0,0,1,1,.13,3.2,3.2,0,0,0,1.1.38.74.74,0,0,1-.2,1.45,3.14,3.14,0,0,1-1.56-.31c-.79.31-1.56.69-2.34,1,0,0-.06,0-.09,0a3.77,3.77,0,0,1-2.12.48A.72.72,0,0,1,49.31,2.41ZM45,14.35a1.45,1.45,0,0,1-.32-.77A2.12,2.12,0,0,1,43.32,12c-.27-1.38.72-2.71,1.66-3.8a1.55,1.55,0,0,1,.2-.64.9.9,0,0,1,.07-.27,1.38,1.38,0,0,1,.2-.33c0-.19.06-.39.11-.59a.72.72,0,0,1,.3-.46,2.68,2.68,0,0,1,1.21-1.53c.67-.36,1.49.58.85,1.1-.39.32-.35.53-.07.93a.55.55,0,0,1-.1.74,2.88,2.88,0,0,1,.11.49,1.32,1.32,0,0,1,1.58.77c.1.23.22.47.35.72h.06a1.44,1.44,0,0,1,1.39,1.08,2.12,2.12,0,0,1-.2,1.84,4.12,4.12,0,0,1,.13,2.08A2.09,2.09,0,0,1,49,15.92a1.38,1.38,0,0,1-.83.21A4,4,0,0,1,45,14.35ZM53.84,23a1.67,1.67,0,0,1-1.9.88,4.73,4.73,0,0,1-1.89-1.4,2.33,2.33,0,0,1-1.6-.65A.56.56,0,0,1,48.4,21l-.21-.13A1.56,1.56,0,0,1,47.45,19l-.15-.1A1.1,1.1,0,0,1,47.59,17a.32.32,0,0,1,.33-.32,4.9,4.9,0,0,1,1.37.17.36.36,0,0,1,.22.16,4.71,4.71,0,0,1,1-.36,1.65,1.65,0,0,1,.44-.05,20.73,20.73,0,0,1,1.66-1.4c1.24-.67,3.28-.35,3.28,1.39,0,1.15-1,2.14-1.66,3,0,0-.06.07-.09.12,1.73.13,2.38,2.74.44,3.19C54.32,22.92,54.08,23,53.84,23Zm3.42,1.86a4.45,4.45,0,0,1-.73.12.45.45,0,0,1-.11,0c-.21,0-.42.07-.64.08-.86,0-.85-1.3,0-1.34.34,0,.67-.11,1-.12a.6.6,0,0,1,.64.64A.38.38,0,0,1,57.26,24.86Zm.26-14.07c.14,0,.43-.2.67-.31a0,0,0,0,1,0,0,1.8,1.8,0,0,1,.13-1.11,3.68,3.68,0,0,1-.8-.08.89.89,0,0,1-.67-.54,6.2,6.2,0,0,1-4.62-1.38,1,1,0,0,1,.43-1.65c1.36-.23,2.72-.45,4.06-.77a.81.81,0,0,1,.38,0A1,1,0,0,1,56.81,4a2.46,2.46,0,0,1,.85-1.36,4.16,4.16,0,0,1,.39-.32s.26-.17.11-.06l.62-.41a.66.66,0,0,1,.43-.1,2.18,2.18,0,0,1,1.29-.05,1.58,1.58,0,0,1,.87.62,2.43,2.43,0,0,1,.85.22A.87.87,0,0,1,62.35,4c0,.2,0,.4,0,.6a.72.72,0,0,1-.25.62,1,1,0,0,1,.82.08C64.17,6,64.15,6.93,64.72,8A1.27,1.27,0,0,1,64,9.84a11.45,11.45,0,0,1-.06,1.87A3.59,3.59,0,0,1,63,13.63a.82.82,0,0,1-1.13.08,11.06,11.06,0,0,1-3.87.82C55.79,14.79,55.59,11.41,57.52,10.79ZM64,20.94c-.76,1.44-2,2.47-3.74,2.07a1.6,1.6,0,0,1-.7-2.64c.58-.73,1.12-1.48,1.65-2.24A1.42,1.42,0,0,1,61.53,17a1.08,1.08,0,0,1,.35-1.34c.89-.65,1.82-1.24,2.71-1.88.47-.34,1,.19.87.65l.09.08C67.58,16.58,66.12,19.32,64,20.94Z"/><path class="cls-1" d="M35.59,6.82c-3.3,0-25.59,6-25.59,6s22.29,6,25.59,6a6,6,0,0,0,0-11.94Zm0,9.39c-1.89,0-6.83-1.53-6.83-3.42s4.94-3.41,6.83-3.41a3.42,3.42,0,0,1,0,6.83Z"/><path class="cls-1" d="M25,6.79H24a1,1,0,0,1,0-2h1a1,1,0,0,1,0,2Z"/><path class="cls-1" d="M6,13.79H1a1,1,0,0,1,0-2H6a1,1,0,0,1,0,2Z"/><path class="cls-1" d="M14,18.79H13a1,1,0,0,1,0-2h1a1,1,0,0,1,0,2Z"/><path class="cls-1" d="M17,8.79H8a1,1,0,0,1,0-2h9a1,1,0,1,1,0,2Z"/></g></g></svg>