<svg xmlns="http://www.w3.org/2000/svg" xmlns:xlink="http://www.w3.org/1999/xlink" viewBox="0 0 108 45.66"><defs><style>.cls-1{fill:url(#linear-gradient);}.cls-2{fill:#fff;}</style><linearGradient id="linear-gradient" y1="22.83" x2="108" y2="22.83" gradientUnits="userSpaceOnUse"><stop offset="0" stop-color="#ed1c24"/><stop offset="1" stop-color="#f15a24"/></linearGradient></defs><title>Asset 15</title><g id="Layer_2" data-name="Layer 2"><g id="Layer_1-2" data-name="Layer 1"><polygon class="cls-1" points="94.82 0 13.18 0 0 22.83 13.18 45.66 94.82 45.66 108 22.83 94.82 0"/><path class="cls-2" d="M80.69,5.89A17.31,17.31,0,1,0,98,23.2,17.31,17.31,0,0,0,80.69,5.89Zm-8,3.25a7.06,7.06,0,0,1,1.1-.55.72.72,0,0,1,.35-.81v0a10.1,10.1,0,0,1,2.33-.89l.25-.1h.16a.53.53,0,0,0,.12,0,.86.86,0,0,1,.95.36c.3-.16.6-.32.92-.46a1.2,1.2,0,0,1,1.37.18,4.46,4.46,0,0,0,1.49.51,1,1,0,0,1-.27,2,4.27,4.27,0,0,1-2.12-.42c-1.07.42-2.1.93-3.15,1.4l-.13,0a5.09,5.09,0,0,1-2.87.64A1,1,0,0,1,72.71,9.14ZM66.84,25.31a2,2,0,0,1-.43-1,2.87,2.87,0,0,1-1.8-2.1c-.36-1.86,1-3.66,2.25-5.14a1.82,1.82,0,0,1,.27-.86,1.25,1.25,0,0,1,.09-.37,1.33,1.33,0,0,1,.28-.44,6,6,0,0,1,.14-.81,1,1,0,0,1,.41-.62,3.66,3.66,0,0,1,1.63-2.07c.91-.48,2,.79,1.15,1.5-.53.43-.47.71-.09,1.25a.76.76,0,0,1-.13,1,6.38,6.38,0,0,1,.15.66,1.77,1.77,0,0,1,2.13,1c.14.31.3.64.47,1h.08a1.92,1.92,0,0,1,1.88,1.46,2.83,2.83,0,0,1-.27,2.48A5.56,5.56,0,0,1,75.23,25a2.83,2.83,0,0,1-2.93,2.39,2,2,0,0,1-1.13.29A5.47,5.47,0,0,1,66.84,25.31Zm12,11.7a2.25,2.25,0,0,1-2.57,1.18,6.3,6.3,0,0,1-2.55-1.89,3.12,3.12,0,0,1-2.17-.88.76.76,0,0,1-.07-1.11,2.61,2.61,0,0,0-.28-.17,2.12,2.12,0,0,1-1-2.62,2.43,2.43,0,0,1-.2-.14,1.48,1.48,0,0,1,.38-2.54.45.45,0,0,1,.46-.43,6.36,6.36,0,0,1,1.84.23.53.53,0,0,1,.31.22,7.07,7.07,0,0,1,1.31-.49,2.38,2.38,0,0,1,.59-.07c.87-.7,1.71-1.59,2.25-1.89,1.68-.91,4.43-.47,4.43,1.89,0,1.55-1.38,2.89-2.24,4.05a1.56,1.56,0,0,0-.12.17c2.33.17,3.22,3.7.59,4.31Q79.33,36.94,78.84,37Zm4.63,2.51a5.56,5.56,0,0,1-1,.16.42.42,0,0,1-.16,0,6.13,6.13,0,0,1-.86.11c-1.17,0-1.16-1.76,0-1.81.46,0,.9-.15,1.35-.17a.82.82,0,0,1,.87.88A.51.51,0,0,1,83.47,39.52Zm.36-19c.18-.06.57-.28.89-.42,0,0,0,0,0-.05a2.53,2.53,0,0,1,.18-1.5,5.17,5.17,0,0,1-1.09-.11,1.17,1.17,0,0,1-.89-.73c-2.28.13-4.86-.41-6.26-1.87a1.34,1.34,0,0,1,.58-2.23c1.84-.31,3.68-.61,5.49-1a1,1,0,0,1,.52,0,1.37,1.37,0,0,1-.38-1.21A3.3,3.3,0,0,1,84,9.5c.17-.15.34-.3.52-.43,0,0,.36-.23.15-.08.28-.2.57-.36.85-.56a.82.82,0,0,1,.57-.13,3.07,3.07,0,0,1,1.75-.08A2.19,2.19,0,0,1,89,9.07a3.42,3.42,0,0,1,1.14.29,1.19,1.19,0,0,1,.18,2c0,.27,0,.55,0,.82a1,1,0,0,1-.34.83,1.44,1.44,0,0,1,1.1.11c1.67.87,1.64,2.15,2.41,3.61a1.7,1.7,0,0,1-1,2.47,14.39,14.39,0,0,1-.08,2.54,4.79,4.79,0,0,1-1.21,2.6,1.1,1.1,0,0,1-1.52.11,15.23,15.23,0,0,1-5.24,1.11C81.48,25.89,81.21,21.32,83.83,20.49Zm8.71,13.73c-1,2-2.7,3.34-5.05,2.8-1.72-.39-1.88-2.4-.95-3.57.79-1,1.52-2,2.24-3a1.94,1.94,0,0,1,.46-1.58A1.45,1.45,0,0,1,89.73,27c1.2-.87,2.46-1.68,3.66-2.55.64-.46,1.29.27,1.17.89l.13.1C97.44,28.32,95.46,32,92.54,34.22Z"/><path class="cls-2" d="M54.15,15.12c-4.46,0-34.62,8.08-34.62,8.08s30.16,8.07,34.62,8.07a8.08,8.08,0,1,0,0-16.15Zm0,12.69c-2.55,0-9.23-2.06-9.23-4.61s6.68-4.62,9.23-4.62a4.62,4.62,0,0,1,0,9.23Z"/><path class="cls-2" d="M39.82,15.08H38.47a1.36,1.36,0,0,1,0-2.71h1.35a1.36,1.36,0,1,1,0,2.71Z"/><path class="cls-2" d="M14.12,24.55H7.35a1.36,1.36,0,0,1,0-2.71h6.77a1.36,1.36,0,0,1,0,2.71Z"/><path class="cls-2" d="M24.94,31.31H23.59a1.35,1.35,0,0,1,0-2.7h1.35a1.35,1.35,0,0,1,0,2.7Z"/><path class="cls-2" d="M29,17.78H16.82a1.35,1.35,0,1,1,0-2.7H29a1.35,1.35,0,1,1,0,2.7Z"/></g></g></svg>