<svg xmlns="http://www.w3.org/2000/svg" viewBox="0 0 212.32 177.32"><defs><style>.cls-1{fill:#ff0;}.cls-2{fill:#ffb400;}.cls-3{fill:#fff;}.cls-4{fill:#2e3192;}.cls-5{fill:#29abe2;}.cls-6{fill:#ed1e79;}</style></defs><title>Asset 26</title><g id="Layer_2" data-name="Layer 2"><g id="Layer_1-2" data-name="Layer 1"><path class="cls-1" d="M124.65,115.3,130.35,97a2.7,2.7,0,0,0-2.68-3.49l-19.18.77a2.69,2.69,0,0,1-1.36-5.07l16.49-8.67a2.69,2.69,0,0,0,.3-4.57L83.69,47.38a2.69,2.69,0,0,1,2.67-4.64l44.85,20.57a2.68,2.68,0,0,0,3.8-2.55l-.73-18.61a2.69,2.69,0,0,1,5.06-1.36l8.94,17a2.68,2.68,0,0,0,4.35.57l13-14.1a2.69,2.69,0,0,1,4.54,2.62l-5.7,18.34a2.69,2.69,0,0,0,2.68,3.48l19.18-.76A2.69,2.69,0,0,1,187.72,73l-16.49,8.66a2.7,2.7,0,0,0-.31,4.58l40.24,28.55a2.68,2.68,0,0,1-2.67,4.63L163.64,98.86a2.69,2.69,0,0,0-3.81,2.55l.74,18.61a2.68,2.68,0,0,1-5.06,1.36l-8.94-17a2.68,2.68,0,0,0-4.35-.58l-13,14.11A2.69,2.69,0,0,1,124.65,115.3Z"/><path class="cls-2" d="M143.18,87.32l.12-4.91a.48.48,0,0,0-.16-.36l-10.75-9a.45.45,0,0,1,.44-.77L146,77.17a.45.45,0,0,0,.39,0l4.19-2.55a.45.45,0,0,1,.69.39l-.12,4.91a.46.46,0,0,0,.17.36l10.75,9a.45.45,0,0,1-.45.77l-13.12-4.84a.48.48,0,0,0-.39,0l-4.2,2.56A.46.46,0,0,1,143.18,87.32Z"/><path class="cls-1" d="M172.23,37.94a1.55,1.55,0,0,1-.8-.21,1.6,1.6,0,0,1-.58-2.18l4.79-8.28a1.6,1.6,0,0,1,2.76,1.6l-4.79,8.28A1.58,1.58,0,0,1,172.23,37.94Zm9.57-16.56a1.61,1.61,0,0,1-.79-.21,1.59,1.59,0,0,1-.59-2.18l4.79-8.28A1.59,1.59,0,1,1,188,12.3l-4.79,8.28A1.59,1.59,0,0,1,181.8,21.38Zm9.58-16.56a1.56,1.56,0,0,1-.8-.22A1.6,1.6,0,0,1,190,2.42L190.94.8a1.59,1.59,0,1,1,2.76,1.59L192.76,4A1.6,1.6,0,0,1,191.38,4.82Z"/><path class="cls-1" d="M101.44,160.7a1.61,1.61,0,0,1-.79-.21,1.59,1.59,0,0,1-.59-2.18l1-1.63a1.6,1.6,0,0,1,2.76,1.6l-.94,1.63A1.61,1.61,0,0,1,101.44,160.7Zm5.73-9.91a1.68,1.68,0,0,1-.8-.21,1.6,1.6,0,0,1-.58-2.18l4.79-8.28a1.59,1.59,0,0,1,2.76,1.59L108.55,150A1.58,1.58,0,0,1,107.17,150.79Zm9.57-16.56a1.59,1.59,0,0,1-1.37-2.39l4.78-8.28a1.59,1.59,0,1,1,2.76,1.59l-4.78,8.28A1.61,1.61,0,0,1,116.74,134.23Z"/><path class="cls-1" d="M158.74,7.4l-1.29,4.75a.8.8,0,0,0,.21.79l3.49,3.46a.81.81,0,0,1-.79,1.36l-4.74-1.3a.83.83,0,0,0-.79.22l-3.46,3.48a.81.81,0,0,1-1.36-.78l1.29-4.74a.8.8,0,0,0-.21-.79l-3.49-3.46A.81.81,0,0,1,148.39,9l4.74,1.29a.8.8,0,0,0,.79-.21l3.46-3.49A.81.81,0,0,1,158.74,7.4Z"/><path class="cls-1" d="M20.36,123.79l-1.3,4.74a.83.83,0,0,0,.22.79l3.48,3.46a.81.81,0,0,1-.78,1.36l-4.74-1.29a.8.8,0,0,0-.79.21L13,136.55a.81.81,0,0,1-1.36-.79L12.92,131a.8.8,0,0,0-.21-.79l-3.49-3.46a.81.81,0,0,1,.78-1.36l4.75,1.29a.8.8,0,0,0,.79-.21L19,123A.81.81,0,0,1,20.36,123.79Z"/><path class="cls-1" d="M208.13,82.09l-1,3.67a.62.62,0,0,0,.17.61l2.7,2.69a.63.63,0,0,1-.61,1l-3.67-1a.62.62,0,0,0-.61.16L202.43,92a.63.63,0,0,1-1.06-.6l1-3.68a.63.63,0,0,0-.16-.61l-2.7-2.68a.63.63,0,0,1,.61-1.05l3.67,1a.61.61,0,0,0,.61-.17l2.68-2.7A.63.63,0,0,1,208.13,82.09Z"/><path class="cls-1" d="M36,26.29,35,30a.65.65,0,0,0,.17.62l2.7,2.68a.63.63,0,0,1-.61,1.05l-3.67-1a.62.62,0,0,0-.61.16l-2.68,2.7a.63.63,0,0,1-1.06-.6l1-3.68a.63.63,0,0,0-.16-.61l-2.7-2.68a.62.62,0,0,1,.6-1.05l3.68,1a.61.61,0,0,0,.61-.17l2.68-2.7A.63.63,0,0,1,36,26.29Z"/><path class="cls-1" d="M180.89,169.57l-.77,2.82a.5.5,0,0,0,.13.48l2.08,2.06a.48.48,0,0,1-.47.81L179,175a.48.48,0,0,0-.47.13l-2.06,2.08a.48.48,0,0,1-.81-.47l.77-2.83a.5.5,0,0,0-.13-.47l-2.08-2.06a.49.49,0,0,1,.47-.82l2.83.77a.49.49,0,0,0,.47-.12l2.06-2.08A.48.48,0,0,1,180.89,169.57Z"/><path class="cls-3" d="M52,49.58A1.59,1.59,0,0,1,50.43,48,37.86,37.86,0,0,1,53.32,33.4a1.6,1.6,0,0,1,3,1.22A34.7,34.7,0,0,0,53.62,48,1.6,1.6,0,0,1,52,49.58Zm70.27-13.93a1.62,1.62,0,0,1-1.48-1,34.61,34.61,0,0,0-7.57-11.34,1.59,1.59,0,0,1,2.26-2.25,38,38,0,0,1,8.26,12.37,1.59,1.59,0,0,1-.86,2.08A1.49,1.49,0,0,1,122.29,35.65ZM62.72,23.76a1.59,1.59,0,0,1-1.12-.47,1.58,1.58,0,0,1,0-2.25A37.86,37.86,0,0,1,74,12.77a1.59,1.59,0,1,1,1.22,2.94,34.75,34.75,0,0,0-11.33,7.58A1.6,1.6,0,0,1,62.72,23.76Zm39.81-7.91a1.47,1.47,0,0,1-.61-.12,34.89,34.89,0,0,0-13.37-2.66,1.6,1.6,0,0,1,0-3.19h0a37.83,37.83,0,0,1,14.58,2.91,1.59,1.59,0,0,1-.61,3.06Z"/><path class="cls-4" d="M39,83.35A15.92,15.92,0,0,1,38.35,105a14.58,14.58,0,0,1-10.78,4.51H10q-4.68,0-5.47-2.54a11.07,11.07,0,0,1-.4-3.47V66.46a18.48,18.48,0,0,1,.1-2.33,5.15,5.15,0,0,1,.63-1.74q.93-1.8,5.21-1.8H26.91a13.73,13.73,0,0,1,10.28,4.27,14.19,14.19,0,0,1,4.33,10.41A13.91,13.91,0,0,1,39,83.35Zm-7.88,9.81a6.93,6.93,0,0,0-.37-2.53,2.33,2.33,0,0,0-1.23-1.34,10.34,10.34,0,0,0-3.74-.53,5.75,5.75,0,0,1-3.6-.94Q21,86.89,21,84c0-1.93.41-3.21,1.23-3.83a6.88,6.88,0,0,1,4.11-.94c1.77,0,2.84-.47,3.2-1.4a10.33,10.33,0,0,0,.2-2.4,2.53,2.53,0,0,0-1.1-2.34,6.58,6.58,0,0,0-3.31-.67H16V97.7h11Q31.11,97.7,31.11,93.16Z"/><path class="cls-4" d="M58.25,67.9a2.89,2.89,0,0,1-1.77,1.37,11.79,11.79,0,0,1-3.37.4,11.82,11.82,0,0,1-3.38-.4A2.8,2.8,0,0,1,48,67.86a5.61,5.61,0,0,1-.61-1.76,21.16,21.16,0,0,1-.1-2.31,21,21,0,0,1,.1-2.3,5.57,5.57,0,0,1,.57-1.7q.93-1.8,5.21-1.8t5.07,1.8a5.32,5.32,0,0,1,.64,1.77,26.5,26.5,0,0,1,0,4.6A5.64,5.64,0,0,1,58.25,67.9Zm-11,12.38a21,21,0,0,1,.1-2.3,6.41,6.41,0,0,1,.57-1.77q.93-1.74,5.21-1.74c2.13,0,3.65.38,4.54,1.14a3.71,3.71,0,0,1,1.2,2.87c0,.44.07,1.09.07,1.93v23.37a21,21,0,0,1-.1,2.3,5.4,5.4,0,0,1-.64,1.77q-.87,1.73-5.14,1.73c-2.8,0-4.52-.6-5.14-1.8a6.46,6.46,0,0,1-.57-1.74,20.53,20.53,0,0,1-.1-2.33Z"/><path class="cls-4" d="M86.58,105.18q-2.53,3.33-8.08,3.33t-10.38-5.1a17.07,17.07,0,0,1,0-23.86Q73,74.41,78.84,74.41a10,10,0,0,1,4.14.83,8.93,8.93,0,0,1,2.56,1.54,8.58,8.58,0,0,1,1.11,1.3A4.09,4.09,0,0,1,88,75.24a6,6,0,0,1,3.78-1,13.32,13.32,0,0,1,3.8.4A2.83,2.83,0,0,1,97.29,76a5.13,5.13,0,0,1,.6,1.7A17.92,17.92,0,0,1,98,80v27.64A15.72,15.72,0,0,1,92.65,120a17.67,17.67,0,0,1-12,4.7A20.17,20.17,0,0,1,71,122.26q-4.6-2.46-4.61-4.47a6.31,6.31,0,0,1,2-4.6,16.07,16.07,0,0,1,2-1.94,2.57,2.57,0,0,1,1.63-.53,3.12,3.12,0,0,1,1.94.8A11.17,11.17,0,0,0,80.84,114,5.08,5.08,0,0,0,85,112a7.46,7.46,0,0,0,1.6-4.81ZM74.7,91.53a5.47,5.47,0,0,0,1.7,3.9,5.56,5.56,0,0,0,4.14,1.74,5.23,5.23,0,0,0,4-1.77,5.64,5.64,0,0,0,1.6-3.87,6,6,0,0,0-1.54-3.94,5.12,5.12,0,0,0-4.13-1.84,5.37,5.37,0,0,0-4.21,1.8A5.86,5.86,0,0,0,74.7,91.53Z"/><path class="cls-4" d="M65.38,135.41A11.46,11.46,0,0,1,64.93,151a10.5,10.5,0,0,1-7.76,3.24H44.53c-2.24,0-3.55-.61-3.94-1.82a8.13,8.13,0,0,1-.29-2.5V123.25a13,13,0,0,1,.08-1.68,3.82,3.82,0,0,1,.45-1.25q.68-1.29,3.75-1.29H56.69a9.9,9.9,0,0,1,7.4,3.07,10.22,10.22,0,0,1,3.12,7.49A10,10,0,0,1,65.38,135.41Zm-5.67,7.06a5.3,5.3,0,0,0-.26-1.83,1.75,1.75,0,0,0-.89-1,7.65,7.65,0,0,0-2.69-.38,4.15,4.15,0,0,1-2.59-.67c-.58-.45-.87-1.37-.87-2.77s.3-2.31.89-2.76a5,5,0,0,1,3-.67c1.29,0,2-.34,2.31-1a7.14,7.14,0,0,0,.14-1.73,1.8,1.8,0,0,0-.79-1.68,4.68,4.68,0,0,0-2.38-.48H48.81v18.21h7.88Q59.71,145.74,59.71,142.47Z"/><path class="cls-4" d="M87.77,131.66q.28-2.68,3.8-2.69a10,10,0,0,1,2.78.29,2,2,0,0,1,1.28,1,4.13,4.13,0,0,1,.43,1.27,13.67,13.67,0,0,1,.07,1.66V150a13.67,13.67,0,0,1-.07,1.66,4.63,4.63,0,0,1-.41,1.27c-.45.84-1.55,1.25-3.29,1.25a6.4,6.4,0,0,1-3.51-.65,2.56,2.56,0,0,1-1-1.89c-1.19,1.69-3.16,2.54-5.93,2.54s-5.35-1.26-7.72-3.79a12.5,12.5,0,0,1-3.55-8.82,12.36,12.36,0,0,1,3.58-8.79A10.68,10.68,0,0,1,82.05,129a7.57,7.57,0,0,1,3,.57,6.76,6.76,0,0,1,1.88,1.09A6.22,6.22,0,0,1,87.77,131.66Zm-8.74,10a4,4,0,0,0,1.25,2.86,4.07,4.07,0,0,0,3,1.28,3.85,3.85,0,0,0,3-1.3,4.19,4.19,0,0,0,1.17-2.86,4.46,4.46,0,0,0-1.12-2.91,3.79,3.79,0,0,0-3-1.34,3.92,3.92,0,0,0-3.08,1.34A4.39,4.39,0,0,0,79,141.65Z"/><path class="cls-4" d="M114.05,129a10.17,10.17,0,0,1,8,3.68,13.17,13.17,0,0,1,3.19,9v8.45a13.67,13.67,0,0,1-.07,1.66,3.73,3.73,0,0,1-.41,1.22c-.45.87-1.69,1.3-3.74,1.3-2.28,0-3.59-.59-3.94-1.78a7.56,7.56,0,0,1-.29-2.45v-8.45a3.85,3.85,0,0,0-4.16-4.18,4.19,4.19,0,0,0-3.07,1.15,4,4,0,0,0-1.18,3v8.5a13.67,13.67,0,0,1-.07,1.66,3.31,3.31,0,0,1-.46,1.22c-.41.87-1.65,1.3-3.7,1.3s-3.25-.43-3.7-1.3a4.63,4.63,0,0,1-.41-1.27A16.12,16.12,0,0,1,100,150V133a15.29,15.29,0,0,1,.07-1.61,3.42,3.42,0,0,1,.46-1.23c.45-.8,1.68-1.2,3.7-1.2s3.15.37,3.6,1.1a3.86,3.86,0,0,1,.48,2,5.22,5.22,0,0,1,.87-1,9,9,0,0,1,1.3-1A6.31,6.31,0,0,1,114.05,129Z"/><path class="cls-4" d="M145.13,151.12q-1.81,2.4-5.81,2.4c-2.66,0-5.15-1.22-7.47-3.68a12.3,12.3,0,0,1,0-17.17,10.45,10.45,0,0,1,7.69-3.7,7.24,7.24,0,0,1,3,.6,6.4,6.4,0,0,1,1.85,1.11,6.12,6.12,0,0,1,.79.93,3,3,0,0,1,1-2,4.25,4.25,0,0,1,2.71-.7,9.5,9.5,0,0,1,2.74.29,2,2,0,0,1,1.22,1,4,4,0,0,1,.44,1.22,15.38,15.38,0,0,1,.07,1.64V152.9a11.31,11.31,0,0,1-3.84,8.91,12.75,12.75,0,0,1-8.65,3.38,14.59,14.59,0,0,1-7-1.77q-3.31-1.78-3.31-3.22a4.57,4.57,0,0,1,1.44-3.32,13.25,13.25,0,0,1,1.41-1.39,1.87,1.87,0,0,1,1.18-.38,2.26,2.26,0,0,1,1.39.57,8,8,0,0,0,5,1.78,3.64,3.64,0,0,0,3-1.44,5.37,5.37,0,0,0,1.15-3.46Zm-8.55-9.83a3.91,3.91,0,0,0,1.23,2.81,4,4,0,0,0,3,1.25,3.75,3.75,0,0,0,2.9-1.27,4.07,4.07,0,0,0,1.15-2.79,4.3,4.3,0,0,0-1.1-2.83,3.69,3.69,0,0,0-3-1.32,3.87,3.87,0,0,0-3,1.29A4.26,4.26,0,0,0,136.58,141.29Z"/><path class="cls-4" d="M181.6,138.6a5.81,5.81,0,0,1-1.47,4.37,4.56,4.56,0,0,1-3.24,1.42H165.5a2.63,2.63,0,0,0,1.59,2.26,6.28,6.28,0,0,0,3.17.91,13.36,13.36,0,0,0,4.37-.57l.53-.2a4.86,4.86,0,0,1,1.92-.52q1.54,0,2.64,2.16a5.24,5.24,0,0,1,.63,2.21q0,4.28-10.23,4.27a15.36,15.36,0,0,1-6.32-1.22,10.78,10.78,0,0,1-4.3-3.24,13.83,13.83,0,0,1-3-8.7,12.56,12.56,0,0,1,3.92-9.68,13.82,13.82,0,0,1,9.77-3.63q6.68,0,9.8,4.71A9.77,9.77,0,0,1,181.6,138.6ZM171.46,140c1.22,0,1.83-.51,1.83-1.54a2.18,2.18,0,0,0-.84-1.78A3.86,3.86,0,0,0,170,136a4.88,4.88,0,0,0-3.1,1.28,3.56,3.56,0,0,0-1.53,2.71Z"/><path class="cls-4" d="M201.92,129.26a3.23,3.23,0,0,1,1.51,1,3.41,3.41,0,0,1,.6,2.24,7.59,7.59,0,0,1-.91,3.36,2.86,2.86,0,0,1-2.64,1.83,3.71,3.71,0,0,1-1.66-.39,4.91,4.91,0,0,0-2.09-.38,3.77,3.77,0,0,0-2.42.91,2.74,2.74,0,0,0-1.13,2.21v10.09a13.23,13.23,0,0,1-.08,1.66,3.75,3.75,0,0,1-.45,1.27c-.48.83-1.73,1.25-3.75,1.25a5.23,5.23,0,0,1-3.31-.82,2.83,2.83,0,0,1-.87-2.06V133.15a13.67,13.67,0,0,1,.07-1.66,4.07,4.07,0,0,1,.41-1.22c.45-.87,1.7-1.3,3.75-1.3s3.12.37,3.6,1.1a2.83,2.83,0,0,1,.53,1.59,7.78,7.78,0,0,1,.7-.82,8.68,8.68,0,0,1,1.94-1.29,5.57,5.57,0,0,1,2.62-.82,12.63,12.63,0,0,1,1.9.12A12,12,0,0,1,201.92,129.26Z"/><path class="cls-5" d="M34.84,79.21a15.94,15.94,0,0,1-.63,21.66,14.57,14.57,0,0,1-10.78,4.5H5.87c-3.11,0-4.94-.84-5.47-2.54A11,11,0,0,1,0,99.36v-37A18.67,18.67,0,0,1,.1,60a5.49,5.49,0,0,1,.63-1.73c.63-1.21,2.36-1.81,5.21-1.81H22.76A13.74,13.74,0,0,1,33,60.72a14.2,14.2,0,0,1,4.34,10.41A13.92,13.92,0,0,1,34.84,79.21ZM27,89a7.22,7.22,0,0,0-.37-2.54,2.35,2.35,0,0,0-1.24-1.33,10.25,10.25,0,0,0-3.73-.54A5.84,5.84,0,0,1,18,83.68c-.8-.63-1.2-1.9-1.2-3.84s.41-3.21,1.24-3.84a6.94,6.94,0,0,1,4.1-.93c1.78,0,2.85-.47,3.2-1.4a9.84,9.84,0,0,0,.2-2.41,2.48,2.48,0,0,0-1.1-2.33,6.41,6.41,0,0,0-3.3-.67H11.81v25.3h11C25.56,93.56,27,92,27,89Z"/><path class="cls-5" d="M54.1,63.75a2.81,2.81,0,0,1-1.77,1.37,11.4,11.4,0,0,1-3.37.4,11.4,11.4,0,0,1-3.37-.4,2.78,2.78,0,0,1-1.77-1.4,6,6,0,0,1-.6-1.77,18.68,18.68,0,0,1-.1-2.3,18.87,18.87,0,0,1,.1-2.31,5.66,5.66,0,0,1,.57-1.7c.62-1.2,2.36-1.8,5.2-1.8s4.5.6,5.08,1.8a5.59,5.59,0,0,1,.63,1.77,18.68,18.68,0,0,1,.1,2.3A18.76,18.76,0,0,1,54.7,62,5.5,5.5,0,0,1,54.1,63.75Zm-11,12.39a18.76,18.76,0,0,1,.1-2.31,6.41,6.41,0,0,1,.57-1.77c.62-1.15,2.36-1.73,5.2-1.73,2.14,0,3.65.38,4.54,1.13a3.66,3.66,0,0,1,1.2,2.87,19.06,19.06,0,0,1,.07,1.94V99.63a18.68,18.68,0,0,1-.1,2.3,5.5,5.5,0,0,1-.63,1.77c-.58,1.16-2.3,1.74-5.14,1.74s-4.52-.6-5.14-1.8a6.46,6.46,0,0,1-.57-1.74,18.67,18.67,0,0,1-.1-2.34Z"/><path class="cls-5" d="M82.43,101q-2.54,3.34-8.07,3.34T64,99.26A17.09,17.09,0,0,1,64,75.4q4.88-5.15,10.68-5.14a10,10,0,0,1,4.14.84,8.81,8.81,0,0,1,2.57,1.53,9,9,0,0,1,1.1,1.3,4,4,0,0,1,1.37-2.83,5.88,5.88,0,0,1,3.77-1,13,13,0,0,1,3.81.4,2.82,2.82,0,0,1,1.7,1.37,5.54,5.54,0,0,1,.6,1.7,19.93,19.93,0,0,1,.1,2.27V103.5a15.69,15.69,0,0,1-5.34,12.38,17.71,17.71,0,0,1-12,4.71,20.2,20.2,0,0,1-9.68-2.47q-4.61-2.48-4.6-4.47a6.36,6.36,0,0,1,2-4.61,16.54,16.54,0,0,1,2-1.93,2.61,2.61,0,0,1,1.64-.54,3.16,3.16,0,0,1,1.93.8,11.13,11.13,0,0,0,6.94,2.47,5,5,0,0,0,4.14-2,7.44,7.44,0,0,0,1.6-4.81ZM70.55,87.38a5.44,5.44,0,0,0,1.71,3.91A5.58,5.58,0,0,0,76.39,93a5.21,5.21,0,0,0,4-1.77A5.64,5.64,0,0,0,82,87.38a6.06,6.06,0,0,0-1.53-3.94,5.13,5.13,0,0,0-4.14-1.83,5.37,5.37,0,0,0-4.21,1.8A5.89,5.89,0,0,0,70.55,87.38Z"/><path class="cls-6" d="M61.24,131.26a11.48,11.48,0,0,1-.46,15.59A10.5,10.5,0,0,1,53,150.09H40.39c-2.25,0-3.56-.6-3.94-1.82a7.83,7.83,0,0,1-.29-2.5V119.11a13.5,13.5,0,0,1,.07-1.68,3.79,3.79,0,0,1,.46-1.25c.45-.87,1.69-1.3,3.75-1.3h12.1a9.88,9.88,0,0,1,7.4,3.07,10.24,10.24,0,0,1,3.12,7.5A10,10,0,0,1,61.24,131.26Zm-5.67,7.06a5,5,0,0,0-.27-1.82,1.67,1.67,0,0,0-.88-1,7.43,7.43,0,0,0-2.69-.39,4.19,4.19,0,0,1-2.6-.67c-.58-.45-.86-1.37-.86-2.76s.29-2.32.88-2.76a5,5,0,0,1,3-.68c1.28,0,2-.33,2.31-1a7.7,7.7,0,0,0,.14-1.73,1.8,1.8,0,0,0-.79-1.68,4.68,4.68,0,0,0-2.38-.48H44.66v18.21h7.88Q55.57,141.59,55.57,138.32Z"/><path class="cls-6" d="M83.63,127.51q.28-2.69,3.79-2.69a10.05,10.05,0,0,1,2.79.29,2,2,0,0,1,1.27,1,4.22,4.22,0,0,1,.43,1.27,13.77,13.77,0,0,1,.07,1.66v16.82a13.48,13.48,0,0,1-.07,1.65,4.36,4.36,0,0,1-.41,1.28c-.44.83-1.54,1.25-3.29,1.25a6.48,6.48,0,0,1-3.5-.65,2.59,2.59,0,0,1-1-1.9q-1.77,2.55-5.93,2.55T70,146.25a12.64,12.64,0,0,1,0-17.61,10.72,10.72,0,0,1,7.86-3.77,7.4,7.4,0,0,1,3,.58,6.46,6.46,0,0,1,1.87,1.08A7.48,7.48,0,0,1,83.63,127.51Zm-8.75,10a4,4,0,0,0,1.25,2.86,4.11,4.11,0,0,0,3,1.27,3.8,3.8,0,0,0,3-1.3,4.14,4.14,0,0,0,1.18-2.86,4.42,4.42,0,0,0-1.13-2.9,3.74,3.74,0,0,0-3-1.35,3.88,3.88,0,0,0-3.07,1.35A4.32,4.32,0,0,0,74.88,137.51Z"/><path class="cls-6" d="M109.9,124.82a10.16,10.16,0,0,1,8,3.68,13.19,13.19,0,0,1,3.2,9v8.45a16.12,16.12,0,0,1-.07,1.66,4.12,4.12,0,0,1-.41,1.23q-.68,1.29-3.75,1.29c-2.27,0-3.59-.59-3.94-1.77a7.9,7.9,0,0,1-.29-2.45v-8.46a4.06,4.06,0,0,0-1.13-3.07,4.12,4.12,0,0,0-3-1.11,4.25,4.25,0,0,0-3.08,1.15,4.07,4.07,0,0,0-1.17,3v8.5a13.23,13.23,0,0,1-.08,1.66,3.38,3.38,0,0,1-.45,1.23c-.42.86-1.65,1.29-3.7,1.29s-3.25-.43-3.7-1.29a4.36,4.36,0,0,1-.41-1.28,13.48,13.48,0,0,1-.07-1.65v-17a13.17,13.17,0,0,1,.07-1.61,3.42,3.42,0,0,1,.46-1.23c.44-.8,1.68-1.2,3.7-1.2s3.15.37,3.6,1.11a3.81,3.81,0,0,1,.48,2,4.82,4.82,0,0,1,.86-1,8.36,8.36,0,0,1,1.3-1A6.27,6.27,0,0,1,109.9,124.82Z"/><path class="cls-6" d="M141,147q-1.83,2.4-5.82,2.4t-7.47-3.67a12.3,12.3,0,0,1,0-17.18,10.49,10.49,0,0,1,7.69-3.7,7.2,7.2,0,0,1,3,.6,6.26,6.26,0,0,1,1.85,1.11,6.82,6.82,0,0,1,.8.94,2.93,2.93,0,0,1,1-2,4.29,4.29,0,0,1,2.72-.69,9.08,9.08,0,0,1,2.73.29,2,2,0,0,1,1.23,1,4,4,0,0,1,.43,1.23,12.9,12.9,0,0,1,.07,1.63v19.89a11.31,11.31,0,0,1-3.84,8.91,12.74,12.74,0,0,1-8.65,3.39,14.47,14.47,0,0,1-7-1.78c-2.21-1.18-3.32-2.26-3.32-3.22a4.55,4.55,0,0,1,1.44-3.31,11.72,11.72,0,0,1,1.42-1.4,1.94,1.94,0,0,1,1.18-.38,2.22,2.22,0,0,1,1.39.58,8,8,0,0,0,5,1.77,3.62,3.62,0,0,0,3-1.44,5.35,5.35,0,0,0,1.16-3.46Zm-8.55-9.82a3.91,3.91,0,0,0,1.22,2.81,4,4,0,0,0,3,1.25,3.76,3.76,0,0,0,2.91-1.28,4,4,0,0,0,1.15-2.78,4.34,4.34,0,0,0-1.11-2.84,3.66,3.66,0,0,0-3-1.32,3.85,3.85,0,0,0-3,1.3A4.2,4.2,0,0,0,132.44,137.15Z"/><path class="cls-6" d="M177.45,134.46a5.86,5.86,0,0,1-1.46,4.37,4.61,4.61,0,0,1-3.25,1.42H161.36a2.63,2.63,0,0,0,1.58,2.25,6.33,6.33,0,0,0,3.17.92,13.39,13.39,0,0,0,4.38-.58l.53-.19a4.82,4.82,0,0,1,1.92-.53q1.53,0,2.64,2.16a5.25,5.25,0,0,1,.62,2.21q0,4.27-10.23,4.28a15.39,15.39,0,0,1-6.32-1.23,10.85,10.85,0,0,1-4.3-3.24,13.8,13.8,0,0,1-3-8.7,12.57,12.57,0,0,1,3.91-9.68A13.82,13.82,0,0,1,166,124.3q6.67,0,9.8,4.7A9.79,9.79,0,0,1,177.45,134.46Zm-10.13,1.41c1.21,0,1.82-.51,1.82-1.53a2.17,2.17,0,0,0-.84-1.78,3.75,3.75,0,0,0-2.4-.67,4.84,4.84,0,0,0-3.1,1.27,3.56,3.56,0,0,0-1.54,2.71Z"/><path class="cls-6" d="M197.77,125.11a3.21,3.21,0,0,1,1.52,1,3.38,3.38,0,0,1,.6,2.23,7.65,7.65,0,0,1-.91,3.36,2.87,2.87,0,0,1-2.65,1.83,3.8,3.8,0,0,1-1.65-.38,4.78,4.78,0,0,0-2.09-.39,3.83,3.83,0,0,0-2.43.91,2.77,2.77,0,0,0-1.13,2.21V146a13.67,13.67,0,0,1-.07,1.66,3.8,3.8,0,0,1-.46,1.27c-.48.84-1.73,1.25-3.74,1.25a5.34,5.34,0,0,1-3.32-.81,2.88,2.88,0,0,1-.86-2.07V129a13.48,13.48,0,0,1,.07-1.65,3.86,3.86,0,0,1,.41-1.23c.44-.86,1.69-1.3,3.74-1.3s3.13.37,3.61,1.11a2.77,2.77,0,0,1,.53,1.58,7.54,7.54,0,0,1,.69-.81,9.12,9.12,0,0,1,2-1.3,5.65,5.65,0,0,1,2.62-.82,12.49,12.49,0,0,1,1.89.12A11.33,11.33,0,0,1,197.77,125.11Z"/></g></g></svg>