<svg xmlns="http://www.w3.org/2000/svg" xmlns:xlink="http://www.w3.org/1999/xlink" viewBox="0 0 74.25 64.31"><defs><style>.cls-1{fill:url(#linear-gradient);}.cls-2{fill:#fff;}</style><linearGradient id="linear-gradient" y1="32.15" x2="74.25" y2="32.15" gradientUnits="userSpaceOnUse"><stop offset="0" stop-color="#ed1c24"/><stop offset="1" stop-color="#f15a24"/></linearGradient></defs><title>Asset 7</title><g id="Layer_2" data-name="Layer 2"><g id="Layer_1-2" data-name="Layer 1"><polygon class="cls-1" points="55.69 0 18.56 0 0 32.15 18.56 64.31 55.69 64.31 74.25 32.15 55.69 0"/><path class="cls-2" d="M22.4,18.05A13.8,13.8,0,1,0,36.2,31.84,13.78,13.78,0,0,0,22.4,18.05ZM16,20.64a5.56,5.56,0,0,1,.88-.44.6.6,0,0,1,.27-.65h0A7.69,7.69,0,0,1,19,18.83l.21-.08h.12l.1,0a.69.69,0,0,1,.76.28c.24-.12.47-.25.73-.36a1,1,0,0,1,1.09.14,3.43,3.43,0,0,0,1.19.41A.8.8,0,0,1,23,20.75a3.39,3.39,0,0,1-1.69-.33c-.86.33-1.68.74-2.52,1.11,0,0-.06,0-.1,0a4.11,4.11,0,0,1-2.29.52A.78.78,0,0,1,16,20.64ZM11.36,33.52a1.58,1.58,0,0,1-.34-.83A2.29,2.29,0,0,1,9.59,31c-.29-1.49.77-2.92,1.79-4.1a1.52,1.52,0,0,1,.22-.69.69.69,0,0,1,.07-.3,1.24,1.24,0,0,1,.22-.34A4.76,4.76,0,0,1,12,25a.79.79,0,0,1,.33-.5,2.82,2.82,0,0,1,1.3-1.65c.72-.39,1.61.63.92,1.19-.43.35-.38.57-.08,1a.61.61,0,0,1-.1.8,4.54,4.54,0,0,1,.12.53,1.42,1.42,0,0,1,1.7.83c.11.25.23.51.37.78l.06,0a1.55,1.55,0,0,1,1.5,1.17,2.26,2.26,0,0,1-.21,2,4.41,4.41,0,0,1,.14,2.24,2.26,2.26,0,0,1-2.34,1.91,1.49,1.49,0,0,1-.89.23A4.36,4.36,0,0,1,11.36,33.52Zm9.57,9.33a1.79,1.79,0,0,1-2.05.94,5,5,0,0,1-2-1.5,2.52,2.52,0,0,1-1.73-.7.6.6,0,0,1-.06-.89,1,1,0,0,0-.22-.13,1.69,1.69,0,0,1-.8-2.09l-.16-.11a1.18,1.18,0,0,1,.31-2,.34.34,0,0,1,.36-.34,4.9,4.9,0,0,1,1.47.18.41.41,0,0,1,.24.17,6.89,6.89,0,0,1,1-.39,1.88,1.88,0,0,1,.47-.05,21,21,0,0,1,1.8-1.5c1.33-.73,3.53-.38,3.52,1.5,0,1.24-1.1,2.3-1.78,3.22l-.1.14c1.86.14,2.57,2.95.47,3.44Zm3.69,2a4.2,4.2,0,0,1-.79.13l-.12,0A5.28,5.28,0,0,1,23,45c-.94,0-.93-1.41,0-1.45.36,0,.71-.12,1.07-.13a.65.65,0,0,1,.69.7A.4.4,0,0,1,24.62,44.85Zm.28-15.17a6.63,6.63,0,0,0,.71-.33v0a2,2,0,0,1,.14-1.2,4.4,4.4,0,0,1-.87-.08,1,1,0,0,1-.71-.59,6.63,6.63,0,0,1-5-1.48,1.07,1.07,0,0,1,.47-1.78c1.46-.25,2.93-.49,4.37-.83a1,1,0,0,1,.42,0,1.07,1.07,0,0,1-.31-1,2.65,2.65,0,0,1,.92-1.47,3.47,3.47,0,0,1,.42-.34s.28-.18.11-.06l.68-.45a.67.67,0,0,1,.46-.1,2.35,2.35,0,0,1,1.39-.06,1.69,1.69,0,0,1,.94.67,3.11,3.11,0,0,1,.92.23,1,1,0,0,1,.14,1.59c0,.22,0,.44,0,.65a.76.76,0,0,1-.27.67,1.15,1.15,0,0,1,.88.08c1.33.7,1.31,1.72,1.92,2.88a1.36,1.36,0,0,1-.8,2,12.29,12.29,0,0,1-.06,2,3.93,3.93,0,0,1-1,2.07.88.88,0,0,1-1.21.08,12.15,12.15,0,0,1-4.18.89C23,34,22.82,30.35,24.9,29.68Zm7,11c-.82,1.55-2.16,2.66-4,2.23A1.72,1.72,0,0,1,27.07,40c.63-.78,1.21-1.59,1.78-2.42a1.49,1.49,0,0,1,.37-1.25,1.17,1.17,0,0,1,.38-1.45c1-.7,2-1.34,2.93-2,.5-.37,1,.21.93.7a.81.81,0,0,1,.1.09C35.75,35.92,34.17,38.88,31.85,40.63Z"/><path class="cls-2" d="M51.52,18.05A13.8,13.8,0,1,0,65.31,31.84,13.79,13.79,0,0,0,51.52,18.05ZM46.1,42.86c-1.87.43-3.21-.68-4-2.23-2.32-1.75-3.9-4.71-1.71-7a.81.81,0,0,1,.1-.09c-.09-.49.43-1.07.93-.7,1,.69,2,1.33,2.93,2a1.17,1.17,0,0,1,.38,1.45,1.49,1.49,0,0,1,.37,1.25c.57.83,1.16,1.64,1.78,2.42A1.72,1.72,0,0,1,46.1,42.86ZM50.89,45a5.28,5.28,0,0,1-.68-.09l-.12,0a4.2,4.2,0,0,1-.79-.13.4.4,0,0,1-.17-.69.65.65,0,0,1,.69-.7c.36,0,.71.12,1.07.13C51.82,43.63,51.83,45.08,50.89,45ZM60,38.37l-.16.11a1.69,1.69,0,0,1-.8,2.09,1,1,0,0,0-.22.13.6.6,0,0,1-.06.89,2.52,2.52,0,0,1-1.73.7,5,5,0,0,1-2,1.5,1.79,1.79,0,0,1-2-.94l-.76-.14c-2.09-.49-1.39-3.3.47-3.44l-.1-.14c-.68-.92-1.78-2-1.78-3.22,0-1.88,2.19-2.23,3.53-1.5a22.85,22.85,0,0,1,1.79,1.5,1.83,1.83,0,0,1,.47.05,6.89,6.89,0,0,1,1,.39.41.41,0,0,1,.24-.17A4.9,4.9,0,0,1,59.37,36a.34.34,0,0,1,.36.34A1.18,1.18,0,0,1,60,38.37Zm4-5.95a4.1,4.1,0,0,1,.2.59.86.86,0,0,1,0,.36,1,1,0,0,0,0,.1,1.27,1.27,0,0,1,.34,1.2,1,1,0,0,1-.89.77,1.09,1.09,0,0,1-1.07-.51,3.14,3.14,0,0,1-.45-.94,4.25,4.25,0,0,1-3,1.45,1.49,1.49,0,0,1-.89-.23,2.26,2.26,0,0,1-2.34-1.91A4.41,4.41,0,0,1,56,31.06a3,3,0,0,1-.2-.4,1.8,1.8,0,0,1-1.08-1.08A2.65,2.65,0,0,1,52.86,28a4.51,4.51,0,0,1-.2-.84,8.41,8.41,0,0,1-2.91.32A.93.93,0,0,1,49,28l-.73,1.28v0a6.63,6.63,0,0,0,.71.33c2.09.67,1.86,4.31-.55,4a12.15,12.15,0,0,1-4.18-.89.88.88,0,0,1-1.21-.08,3.93,3.93,0,0,1-1-2.07,12.29,12.29,0,0,1-.06-2,1.36,1.36,0,0,1-.8-2c.61-1.16.59-2.18,1.92-2.88a1.15,1.15,0,0,1,.88-.08.79.79,0,0,1-.27-.67c0-.21,0-.43,0-.65A1,1,0,0,1,44,20.81a3.11,3.11,0,0,1,.92-.23,1.69,1.69,0,0,1,.94-.67A2.35,2.35,0,0,1,47.2,20a.67.67,0,0,1,.46.1l.68.45c-.17-.12.11.06.11.06a3.47,3.47,0,0,1,.42.34,2.65,2.65,0,0,1,.92,1.47,1.07,1.07,0,0,1-.31,1,1,1,0,0,1,.42,0c1,.23,2,.41,3,.59a7,7,0,0,1,1.3-2.83c-.53-.24-1.05-.48-1.59-.69a3.39,3.39,0,0,1-1.69.33.8.8,0,0,1-.21-1.56,3.43,3.43,0,0,0,1.19-.41A1,1,0,0,1,53,18.64c.26.11.49.24.73.36a.69.69,0,0,1,.76-.28l.1,0h.12l.21.08a7.69,7.69,0,0,1,1.85.71h0a.56.56,0,0,1,.27.59,3.85,3.85,0,0,1,.84.38,3.23,3.23,0,0,1,1.42,2.59.8.8,0,0,1,1-.31,2.82,2.82,0,0,1,1.3,1.65.79.79,0,0,1,.33.5,4.76,4.76,0,0,1,.11.64,1.24,1.24,0,0,1,.22.34.69.69,0,0,1,.07.3,1.52,1.52,0,0,1,.22.69,11.88,11.88,0,0,1,1.17,1.55.94.94,0,0,1,.84.68,1.13,1.13,0,0,1,.11.48h0a7.72,7.72,0,0,1-.06.84,1.14,1.14,0,0,1-.08.33v.13a.69.69,0,0,1-.4.62,2.63,2.63,0,0,1-.35.52A1,1,0,0,1,64,32.42Z"/><path class="cls-2" d="M21.26,13.58l-.76-.77A1.07,1.07,0,1,1,22,11.29l.76.76a1.08,1.08,0,1,1-1.52,1.53Z"/><path class="cls-2" d="M26.47,49l-3.82,3.81a1.07,1.07,0,0,1-1.52-1.52l3.81-3.81A1.08,1.08,0,1,1,26.47,49Z"/><path class="cls-2" d="M47.46,14.21l.76-.77A1.08,1.08,0,1,1,49.74,15l-.76.76a1.07,1.07,0,0,1-1.52-1.52Z"/><path class="cls-2" d="M55.58,55.45l-6.86-6.87a1.07,1.07,0,0,1,1.52-1.52l6.87,6.86a1.08,1.08,0,0,1-1.53,1.53Z"/><path class="cls-2" d="M38.46,55.84c-3.35,0-5.89-3.86-7.36-11.17a2.15,2.15,0,1,1,4.22-.85c1.15,5.66,2.68,7.44,3.14,7.69,1.25-.59,4.21-7,4.21-19.67s-3-19.07-4.21-19.67c-.47.26-2,2.09-3.18,7.94A2.16,2.16,0,0,1,31,19.28c1.47-7.48,4-11.44,7.42-11.44,6.73,0,8.52,15.09,8.52,24S45.19,55.84,38.46,55.84Z"/></g></g></svg>