<svg xmlns="http://www.w3.org/2000/svg" xmlns:xlink="http://www.w3.org/1999/xlink" viewBox="0 0 59.33 51.38"><defs><style>.cls-1{fill:url(#linear-gradient);}.cls-2{fill:#fff;}</style><linearGradient id="linear-gradient" y1="25.69" x2="59.33" y2="25.69" gradientUnits="userSpaceOnUse"><stop offset="0" stop-color="#f0f"/><stop offset="0.07" stop-color="#ef02ef"/><stop offset="1" stop-color="#662d91"/></linearGradient></defs><title>Asset 5</title><g id="Layer_2" data-name="Layer 2"><g id="Layer_1-2" data-name="Layer 1"><polygon class="cls-1" points="44.49 0 14.83 0 0 25.69 14.83 51.38 44.49 51.38 59.33 25.69 44.49 0"/><path class="cls-2" d="M43.45,30.32a3,3,0,0,1,.83-3.83L46,25.15a3,3,0,0,0-1-5.3L43,19.21a3,3,0,0,1-2.13-3.29l.28-2.17a3,3,0,0,0-4.43-3.07l-1.94,1a3,3,0,0,1-3.83-.82L29.56,9.15a3,3,0,0,0-5.3,1l-.64,2.1a3,3,0,0,1-3.29,2.13l-2.17-.28a3,3,0,0,0-3.07,4.43l1,1.93a3,3,0,0,1-.83,3.84L13.57,25.6a3,3,0,0,0,1,5.31l2.09.63a3,3,0,0,1,2.13,3.3L18.48,37a3,3,0,0,0,4.43,3.06l1.94-1a3,3,0,0,1,3.83.83L30,41.6a3,3,0,0,0,5.3-1l.64-2.1a3,3,0,0,1,3.29-2.12l2.17.28a3,3,0,0,0,3.07-4.44ZM27.74,34.93a9.77,9.77,0,1,1,11.6-7.5A9.78,9.78,0,0,1,27.74,34.93Z"/></g></g></svg>