<svg xmlns="http://www.w3.org/2000/svg" viewBox="0 0 76.37 76"><defs><style>.cls-1{fill:aqua;}</style></defs><title>Asset 8</title><g id="Layer_2" data-name="Layer 2"><g id="Layer_1-2" data-name="Layer 1"><path class="cls-1" d="M32.64,61.64a24.18,24.18,0,0,1-5.15-1.79L21.62,72.12l.37.17h0a37.76,37.76,0,0,0,8,2.77l3-13.26-.38-.1Z"/><path class="cls-1" d="M57.06,22.59l10.61-8.51a38.38,38.38,0,0,0-6-6L53.18,18.73A24.42,24.42,0,0,1,57.06,22.59Z"/><path class="cls-1" d="M46.41.76,43.41,14a24.1,24.1,0,0,1,5.14,1.79l5.9-12.26A38.13,38.13,0,0,0,46.41.76Z"/><path class="cls-1" d="M60,27.2a23.62,23.62,0,0,1,1.81,5.14l.3-.07c0,.09.05.17.07.26l13.26-3a38.21,38.21,0,0,0-2.83-8l-.24.12c0-.1-.08-.2-.13-.3Z"/><path class="cls-1" d="M72.28,54.24,60,48.36A25,25,0,0,1,57.12,53l10.65,8.46,0-.06.32.25a37.79,37.79,0,0,0,4.51-7.22l-.36-.18Z"/><path class="cls-1" d="M4.05,21.66,16.33,27.5a24.55,24.55,0,0,1,2.88-4.63l-.3-.24h0L8.28,14.14a38.56,38.56,0,0,0-4.53,7.2l.37.18Z"/><path class="cls-1" d="M38.34,13.6V0a38.07,38.07,0,0,0-8.45,1l3,13.26A24.83,24.83,0,0,1,38.34,13.6Z"/><path class="cls-1" d="M23.15,18.93A24.29,24.29,0,0,1,27.77,16L21.85,3.77a38,38,0,0,0-7.23,4.57l-.06,0L23,19Z"/><path class="cls-1" d="M43.56,61.84l-.05-.24a24.72,24.72,0,0,1-5.43.63l0,13.6h.35V76a37.58,37.58,0,0,0,8.45-1L43.86,61.78Z"/><path class="cls-1" d="M76,37.94v-.18H67.48l-5.08-.18v.25a24.18,24.18,0,0,1-.6,5.38l.38.08a.3.3,0,0,1,0,.1l13.27,3a38.58,38.58,0,0,0,.94-8.44Z"/><path class="cls-1" d="M23.21,57.14a24.78,24.78,0,0,1-3.87-3.86l-.13.1L19,53.11,8.38,61.63a38,38,0,0,0,6,6l.06-.08.29.25Z"/><path class="cls-1" d="M14,38.1a24.85,24.85,0,0,1,.6-5.44l-.39-.08a1.29,1.29,0,0,1,0-.19l-13.27-3A38.73,38.73,0,0,0,0,37.89V38H.37c0,.06,0,.12,0,.18Z"/><path class="cls-1" d="M53.78,56.92l-.2.15-.1.08-.22-.28a25.25,25.25,0,0,1-4.61,2.92L54.59,72a1.51,1.51,0,0,1,.22-.11l.14.29a38.13,38.13,0,0,0,7.12-4.5l0,0L56.8,61Z"/><path class="cls-1" d="M16.41,48.67a24.19,24.19,0,0,1-1.82-5.14l-.3.07-.06-.24L1,46.43a38.08,38.08,0,0,0,2.84,8l.24-.11.12.28Z"/></g></g></svg>