<svg xmlns="http://www.w3.org/2000/svg" xmlns:xlink="http://www.w3.org/1999/xlink" viewBox="0 0 35.74 36.56"><defs><style>.cls-1{opacity:0.83;}.cls-2{fill:url(#linear-gradient);}.cls-3{fill:url(#linear-gradient-2);}</style><linearGradient id="linear-gradient" y1="18.28" x2="31.59" y2="18.28" gradientUnits="userSpaceOnUse"><stop offset="0" stop-color="aqua"/><stop offset="1" stop-color="#00bdff"/></linearGradient><linearGradient id="linear-gradient-2" x1="25.44" y1="8.01" x2="35.74" y2="8.01" xlink:href="#linear-gradient"/></defs><title>Asset 17</title><g id="Layer_2" data-name="Layer 2"><g id="Layer_1-2" data-name="Layer 1"><g class="cls-1"><path class="cls-2" d="M17.28,14.31V3.58a3.58,3.58,0,1,0-7.15,0V16.29a15.81,15.81,0,0,1-1.27,3.09l-2.13-4A3.58,3.58,0,0,0,1.9,13.87h0A3.59,3.59,0,0,0,.41,18.71L6.37,30c1.37,3.43,7.41,6.61,10.91,6.61h4.77A9.56,9.56,0,0,0,31.59,27V23.85C31.59,18.6,17.28,14.31,17.28,14.31Z"/><polygon class="cls-3" points="32.5 12.48 35.74 8.02 32.5 3.55 31.38 4.36 33.53 7.32 25.43 7.32 25.43 8.71 33.53 8.71 31.38 11.67 32.5 12.48"/></g></g></g></svg>